<?xml version="1.0" encoding="utf-8"?>
<svg version="1.1" id="Слой_1" xmlns="http://www.w3.org/2000/svg" xmlns:xlink="http://www.w3.org/1999/xlink" x="0px" y="0px"
	 viewBox="0 0 480 640" style="enable-background:new 0 0 480 640;" xml:space="preserve">
<style type="text/css">
	.st0{display:none;fill:#0EB7E5;}
	.st1{fill:#6C757D;}
</style>
<path class="st0" d="M362.49,424.04L329.8,454.1l-21.01-57.27l-55.54,111.8l5.09-168.58l95.5-65.72V94.91L238.75,12v311.49v30.03
	V537.8v7.07v26.43l93.36-81.92l45.23,94.3l-37.19-101.36l19.86-17.43l110.13,168.5L362.49,424.04z M271.28,507.9l36.03-70.23
	l12.35,25.75L271.28,507.9z"/>
<path class="st1" d="M349.93,474.95l99.2,151.78l-96.97-188.57l-29.45,27.07l-18.93-51.59l-50.03,100.71l4.58-151.86l86.02-59.2
	V141.68L240.7,67l-103.66,74.68V303.3l86.02,59.2l4.58,151.86l-50.03-100.71l-18.93,51.59l-29.45-27.07L32.26,626.74l99.2-151.78
	l17.89,15.7l-33.5,91.3l40.75-84.94l84.09,73.8l84.09-73.8l40.75,84.94l-33.5-91.3L349.93,474.95z M167.82,473.64l11.13-23.2
	l32.45,63.26L167.82,473.64z M270,513.7l32.45-63.26l11.13,23.2L270,513.7z"/>
</svg>
