<svg width="170" height="42" viewBox="0 0 170 42" fill="none" xmlns="http://www.w3.org/2000/svg">
<path fill-rule="evenodd" clip-rule="evenodd" d="M0 26.2878H3.84442V9.18022H3.94603L4.43717 13.8159L6.60495 26.2878H10.6187L12.8204 13.7829L13.2776 9.11423H13.4131V26.2878H17.7148V3.32373H11.2115L9.43322 15.0367L8.87434 19.4909H8.77272L8.45095 15.0367L6.80818 3.32373H0V26.2878Z" fill="#0038A8"/>
<path fill-rule="evenodd" clip-rule="evenodd" d="M27.8755 3.32373L25.2421 11.4898L24.6474 14.4923H24.5115L24.6474 11.2919V3.32373H19.8903V26.2878H24.6474L27.1789 16.7689L27.9094 13.3375H28.1133L27.8755 16.7689V26.2878H32.6326V3.32373H27.8755Z" fill="#0038A8"/>
<path fill-rule="evenodd" clip-rule="evenodd" d="M35.1188 26.2878H39.9043V14.4923H39.9898L42.1945 26.2878H46.9287L43.972 12.7601L46.9287 3.32373H42.3483L39.9898 13.4365H39.9043V3.32373H35.1188V26.2878Z" fill="#0038A8"/>
<path fill-rule="evenodd" clip-rule="evenodd" d="M49.415 26.2878H54.0839V17.3463H54.5358C58.0835 17.3463 60.2925 16.4225 60.2925 12.4467V7.48101C60.2925 4.18158 57.8492 3.32373 54.8705 3.32373H49.415V26.2878ZM54.0839 14.1789V6.24373H54.7701C55.3558 6.24373 55.7072 6.62316 55.7072 7.5635V12.8756C55.7072 13.6179 55.3558 14.1953 54.837 14.1953H54.0839V14.1789Z" fill="#0038A8"/>
<path fill-rule="evenodd" clip-rule="evenodd" d="M62.468 20.9238C62.468 24.7974 63.7682 26.8921 68.0793 26.8921C72.4588 26.8921 73.6563 24.7974 73.6563 20.9238V8.78756C73.6563 4.91394 72.5272 2.71945 68.0793 2.71945C63.7682 2.71945 62.468 4.91394 62.468 8.78756V20.9238ZM67.241 7.17494C67.241 6.39356 67.6687 6.01119 68.0793 6.01119C68.4727 6.01119 68.8833 6.39356 68.8833 7.17494V22.3369C68.8833 23.1183 68.4556 23.5006 67.9937 23.5006C67.7029 23.5006 67.2581 23.1183 67.2581 22.3369V7.17494H67.241Z" fill="#0038A8"/>
<path fill-rule="evenodd" clip-rule="evenodd" d="M136.124 41.0935H140.828V21.2992H144.826V18.1295H136.124V41.0935Z" fill="#00B760"/>
<path fill-rule="evenodd" clip-rule="evenodd" d="M147.623 41.0935H156.325V37.6266H152.31V29.9499H156.325V26.6151H152.31V21.2992H156.325V18.1295H147.623V41.0935Z" fill="#00B760"/>
<path fill-rule="evenodd" clip-rule="evenodd" d="M159.122 41.0935H163.837V30.0325H165.302V41.0935H170V18.1295H165.302V26.6151H163.837V18.1295H159.122V41.0935Z" fill="#00B760"/>
<path fill-rule="evenodd" clip-rule="evenodd" d="M75.521 23.8031V31.4245C82.0854 24.7599 84.6533 17.1385 88.7518 8.79129C91.5067 3.19898 94.2617 1.10393 100.384 0.0646479V0.0481514C93.7005 -0.166303 88.9048 0.0811443 85.3165 6.28382C81.8813 12.2061 79.6875 18.2438 75.538 23.8031C75.538 23.8031 75.538 23.8196 75.521 23.8196V23.8031Z" fill="#0038A8"/>
<path fill-rule="evenodd" clip-rule="evenodd" d="M75.5379 0V4.23515C80.3215 5.30629 82.4851 8.55269 85.2572 12.5736C90.7169 20.4507 95.8892 28.5419 101.467 36.3531C104.73 40.9178 109.31 41.3957 114.533 41.3957L116.545 40.4564C113.891 41.2968 110.324 40.3575 108.381 37.9186C100.571 28.1629 94.0806 17.5668 86.9982 7.33323C86.5587 6.69054 86.0347 6.09729 85.5276 5.48756C82.6034 1.99398 79.9665 0.379021 75.521 0.0164792L75.5379 0Z" fill="#00B760"/>
<path fill-rule="evenodd" clip-rule="evenodd" d="M133.016 25.365V15.4101C132.007 17.2365 130.997 19.0629 129.953 20.8729C126.53 26.8294 122.371 35.106 118.982 38.5614C115.61 42.0168 112.786 41.0295 107.532 40.7004C114.087 42.7901 120.967 42.8724 125.417 37.064C128.224 33.3947 130.689 29.4292 133.016 25.3814V25.365Z" fill="#0038A8"/>
<path fill-rule="evenodd" clip-rule="evenodd" d="M132.999 41.3791V36.9245C129.086 34.6558 127.172 29.9859 124.847 26.2102C123.224 23.5772 121.617 20.9607 119.976 18.3443C114.627 9.79933 108.253 -1.95823 96.0329 0.277362C100.152 0.674801 102.715 1.85056 105.501 4.86446C112.149 12.0515 116.61 21.1098 121.891 29.2407C124.847 33.7781 128.129 39.0442 133.016 41.3957L132.999 41.3791Z" fill="#00B760"/>
</svg>
